<svg width="17" height="18" viewBox="0 0 17 18" fill="none" xmlns="http://www.w3.org/2000/svg">
<g id="Aside/Earth">
<g id="Group 6">
<circle id="Ellipse 122" cx="8.5" cy="9" r="6.375" stroke="black" stroke-width="1.41667" stroke-linecap="round" stroke-linejoin="round"/>
<path id="Subtract" d="M9.2083 2.65906C8.9618 2.86652 8.73971 3.11136 8.55075 3.39186C7.45794 5.01413 7.88715 7.21513 9.50941 8.30794C9.63747 8.3942 9.76913 8.47098 9.90356 8.53843C11.3333 9.25583 11.8791 8.28894 12.6532 8.81039C13.1554 9.14864 13.2882 9.8299 12.95 10.332C12.5955 10.8582 12.0416 11.125 12.1375 11.9869C12.1915 12.4733 12.4904 12.8925 12.8777 13.25" stroke="black" stroke-width="1.41667" stroke-linecap="round" stroke-linejoin="round"/>
<path id="Union" d="M2.83333 7.07336C3.59966 7.25986 4.30879 7.70221 4.82092 8.38088C5.36681 9.10429 5.5931 9.96927 5.52347 10.8065C5.48659 11.25 5.77578 11.6975 6.14791 11.9415C6.3277 12.0593 6.49061 12.2096 6.62755 12.3911C7.2339 13.1946 7.11291 14.3203 6.37499 14.9788" stroke="black" stroke-width="1.41667" stroke-linecap="round" stroke-linejoin="round"/>
</g>
</g>
</svg>
