<svg width="16" height="12" viewBox="0 0 16 12" fill="none" xmlns="http://www.w3.org/2000/svg">
<g id="Flag icon" clip-path="url(#clip0_474_229)">
<mask id="mask0_474_229" style="mask-type:alpha" maskUnits="userSpaceOnUse" x="-2" y="-1" width="20" height="14">
<g id="Mask">
<path id="Vector" d="M15.5556 -1H0.444442C-0.537398 -1 -1.33334 -0.164265 -1.33334 0.866667V11.1333C-1.33334 12.1643 -0.537398 13 0.444442 13H15.5556C16.5374 13 17.3333 12.1643 17.3333 11.1333V0.866667C17.3333 -0.164265 16.5374 -1 15.5556 -1Z" fill="white"/>
</g>
</mask>
<g mask="url(#mask0_474_229)">
<path id="Vector_2" d="M15.5556 -1H0.444442C-0.537398 -1 -1.33334 -0.164265 -1.33334 0.866667V11.1333C-1.33334 12.1643 -0.537398 13 0.444442 13H15.5556C16.5374 13 17.3333 12.1643 17.3333 11.1333V0.866667C17.3333 -0.164265 16.5374 -1 15.5556 -1Z" fill="#22438B"/>
<path id="Vector_3" fill-rule="evenodd" clip-rule="evenodd" d="M1.33333 -0.0666656L-0.46756 -0.042399L-0.444449 1.8L14.6507 12.0928L16.4613 12.0583L16.4276 10.2271L1.33333 -0.0666656Z" fill="white"/>
<path id="Vector_4" fill-rule="evenodd" clip-rule="evenodd" d="M0.444439 -0.0666656L-0.44445 0.866668L15.5555 12.0667L16.4444 11.1333L0.444439 -0.0666656Z" fill="#C7152A"/>
<path id="Vector_5" fill-rule="evenodd" clip-rule="evenodd" d="M14.6667 -0.0666656H16.4444V1.8C16.4444 1.8 6 8.70294 1.34933 12.0928C1.29333 12.1339 -0.426668 12.0956 -0.426668 12.0956L-0.564445 10.3213L14.6667 -0.0666656Z" fill="white"/>
<path id="Vector_6" fill-rule="evenodd" clip-rule="evenodd" d="M15.5938 -0.092804L16.4444 0.866663L0.444439 12.0667L-0.44445 11.1333L15.5938 -0.092804Z" fill="#C7152A"/>
<path id="Vector_7" fill-rule="evenodd" clip-rule="evenodd" d="M5.77777 -0.0666656H10.2222V3.66667H16.4444V8.33333H10.2222V12.0667H5.77777V8.33333H-0.44445V3.66667H5.77777V-0.0666656Z" fill="white"/>
<path id="Vector_8" fill-rule="evenodd" clip-rule="evenodd" d="M6.66666 -0.0666656H9.33333V4.6H16.4444V7.4H9.33333V12.0667H6.66666V7.4H-0.44445V4.6H6.66666V-0.0666656Z" fill="#C7152A"/>
<path id="Vector_9" d="M15.5556 -0.53334H0.44444C-0.291939 -0.53334 -0.888893 0.0934609 -0.888893 0.86666V11.1333C-0.888893 11.9065 -0.291939 12.5333 0.44444 12.5333H15.5556C16.2919 12.5333 16.8889 11.9065 16.8889 11.1333V0.86666C16.8889 0.0934609 16.2919 -0.53334 15.5556 -0.53334Z" stroke="black" stroke-opacity="0.1"/>
</g>
</g>
<defs>
<clipPath id="clip0_474_229">
<rect width="18.6667" height="14" fill="white" transform="translate(-1.33334 -1)"/>
</clipPath>
</defs>
</svg>
