<?xml version="1.0" standalone="no"?>
<!DOCTYPE svg PUBLIC "-//W3C//DTD SVG 20010904//EN"
 "http://www.w3.org/TR/2001/REC-SVG-20010904/DTD/svg10.dtd">
<svg version="1.0" xmlns="http://www.w3.org/2000/svg"
 width="225.000000pt" height="225.000000pt" viewBox="0 0 225.000000 225.000000"
 preserveAspectRatio="xMidYMid meet">

<g transform="translate(0.000000,225.000000) scale(0.100000,-0.100000)"
fill="#008080" stroke="none">
<path d="M217 2236 c-101 -28 -185 -117 -207 -219 -7 -36 -10 -321 -8 -922 l3
-870 28 -57 c32 -64 80 -111 146 -142 46 -21 52 -21 946 -21 l900 0 57 28 c64
32 111 80 142 146 21 46 21 52 21 946 0 894 0 900 -21 946 -31 66 -78 114
-142 146 l-57 28 -880 2 c-700 2 -890 -1 -928 -11z m922 -331 c6 -110 18 -324
27 -475 37 -680 45 -735 118 -765 75 -32 126 -10 197 81 24 31 45 51 47 44 7
-19 -28 -150 -54 -206 -56 -120 -148 -194 -262 -214 -170 -28 -317 52 -394
216 -32 68 -58 154 -58 193 0 21 4 19 33 -22 43 -61 80 -88 127 -94 53 -7 95
12 114 51 19 40 32 151 46 376 11 185 40 891 40 974 0 105 9 32 19 -159z
m-350 -1414 c18 -25 21 -44 21 -125 0 -53 3 -96 7 -96 3 0 15 7 25 17 13 12
18 30 18 70 0 57 10 65 42 36 15 -13 18 -32 18 -115 l0 -99 -27 3 c-24 3 -28
8 -28 34 l0 32 -27 -20 c-16 -11 -28 -26 -28 -34 0 -11 -8 -14 -27 -12 l-28 3
-3 168 c-1 101 1 167 7 167 5 0 19 -13 30 -29z m741 -136 l0 -165 -25 0 c-23
0 -24 3 -27 77 l-3 77 -52 -82 c-29 -45 -57 -82 -63 -82 -5 0 -10 19 -10 41 0
35 13 62 83 170 45 71 85 128 90 129 4 0 7 -74 7 -165z m-440 -45 c0 -16 -7
-20 -30 -20 -30 0 -30 -1 -30 -55 0 -52 -1 -55 -25 -55 -24 0 -25 2 -25 75 l0
75 55 0 c48 0 55 -2 55 -20z m102 -10 l3 -31 35 30 c19 17 45 30 58 31 21 0
22 -4 22 -75 0 -73 -1 -75 -25 -75 -23 0 -25 4 -25 42 l0 42 -43 -42 c-24 -24
-52 -42 -65 -42 -21 0 -22 4 -22 75 l0 75 29 0 c26 0 30 -4 33 -30z"/>
</g>
</svg>
