<svg width="10" height="11" viewBox="0 0 10 11" fill="none" xmlns="http://www.w3.org/2000/svg">
<g id="basic/link_02">
<path id="Icon" d="M3.52708 9.05625C2.68451 9.05625 1.9249 8.54871 1.60241 7.7703C1.27992 6.99189 1.45805 6.09587 2.05374 5.49999L2.93791 4.61583L3.52708 5.20499L2.64333 6.08874C2.32752 6.40455 2.20418 6.86485 2.31978 7.29625C2.43537 7.72765 2.77233 8.06462 3.20373 8.18021C3.63514 8.29581 4.09544 8.17247 4.41124 7.85666L5.29499 6.97291L5.88416 7.56249L5.00041 8.44624C4.61044 8.83813 4.07993 9.05778 3.52708 9.05625ZM3.82166 7.26749L3.23249 6.67833L6.17874 3.73208L6.76791 4.32124L3.82208 7.26708L3.82166 7.26749ZM7.06291 6.38374L6.47333 5.79458L7.35708 4.91083C7.67719 4.59596 7.80383 4.1336 7.68884 3.69957C7.57386 3.26553 7.23492 2.92651 6.80091 2.81143C6.36691 2.69634 5.90452 2.82288 5.58958 3.14291L4.70541 4.02666L4.11624 3.43749L5.00041 2.55333C5.81503 1.74581 7.12915 1.74869 7.94022 2.55976C8.7513 3.37084 8.75418 4.68496 7.94666 5.49958L7.06291 6.38333V6.38374Z" fill="#79819A"/>
</g>
</svg>
