<svg width="8" height="8" viewBox="0 0 8 8" fill="none" xmlns="http://www.w3.org/2000/svg">
<g id="basic/link_02">
<path id="Icon" d="M2.89529 6.48385C2.26336 6.48385 1.69366 6.10319 1.45179 5.51939C1.20992 4.93558 1.34352 4.26356 1.79029 3.81666L2.45341 3.15353L2.89529 3.59541L2.23248 4.25822C1.99562 4.49508 1.90312 4.8403 1.98981 5.16385C2.07651 5.4874 2.32923 5.74013 2.65278 5.82682C2.97633 5.91352 3.32156 5.82101 3.55841 5.58416L4.22123 4.92134L4.6631 5.36353L4.00029 6.02635C3.70781 6.32026 3.30993 6.48499 2.89529 6.48385ZM3.11623 5.14228L2.67435 4.70041L4.88404 2.49072L5.32591 2.93259L3.11654 5.14197L3.11623 5.14228ZM5.54716 4.47947L5.10498 4.03759L5.76779 3.37478C6.00787 3.13864 6.10285 2.79186 6.01661 2.46634C5.93038 2.14081 5.67617 1.88655 5.35067 1.80023C5.02516 1.71392 4.67837 1.80882 4.44216 2.04884L3.77904 2.71166L3.33716 2.26978L4.00029 1.60666C4.61125 1.00102 5.59684 1.00318 6.20515 1.61148C6.81345 2.21979 6.81561 3.20538 6.20998 3.81634L5.54716 4.47916V4.47947Z" fill="#516CF7"/>
</g>
</svg>
