<svg width="10" height="10" viewBox="0 0 10 10" fill="none" xmlns="http://www.w3.org/2000/svg">
<g id="basic/location">
<path id="Icon" d="M5 8.75C4.47372 8.3011 3.98591 7.80896 3.54166 7.27875C2.875 6.4825 2.08333 5.29666 2.08333 4.16666C2.08274 2.98648 2.79343 1.92224 3.88377 1.47058C4.97412 1.01892 6.22919 1.26885 7.06333 2.10375C7.61185 2.64983 7.91913 3.39266 7.91668 4.16666C7.91668 5.29666 7.125 6.4825 6.45833 7.27875C6.01409 7.80896 5.52627 8.3011 5 8.75ZM5 2.91666C4.55341 2.91666 4.14076 3.15491 3.91746 3.54166C3.69417 3.92842 3.69417 4.40491 3.91746 4.79167C4.14076 5.17842 4.55341 5.41667 5 5.41667C5.69035 5.41667 6.25 4.85702 6.25 4.16666C6.25 3.47631 5.69035 2.91666 5 2.91666Z" fill="#79819A"/>
</g>
</svg>
