<svg width="10" height="10" viewBox="0 0 10 10" fill="none" xmlns="http://www.w3.org/2000/svg">
<g id="basic/phone">
<path id="Icon" d="M7.91563 8.33332C4.36079 8.33837 1.66287 5.60812 1.66668 2.08438C1.66668 1.85426 1.85322 1.66666 2.08334 1.66666H3.18307C3.38956 1.66666 3.56498 1.81838 3.5953 2.02263C3.66797 2.51216 3.81049 2.98873 4.01854 3.43779L4.06136 3.53021C4.12089 3.65871 4.08054 3.81139 3.96529 3.89369C3.62471 4.13691 3.49456 4.62648 3.75988 5.00848C4.09283 5.48785 4.51253 5.90746 4.99178 6.24025C5.37376 6.5055 5.86325 6.37536 6.10647 6.03485C6.18883 5.91954 6.34159 5.87916 6.47017 5.93872L6.56216 5.98134C7.01125 6.18937 7.48786 6.3319 7.97743 6.40456C8.18169 6.43487 8.33334 6.61028 8.33334 6.81677V7.91666C8.33334 8.14677 8.14634 8.33332 7.91622 8.33332L7.91563 8.33332Z" fill="#D9DFE8"/>
</g>
</svg>
