<svg width="10" height="10" viewBox="0 0 10 10" fill="none" xmlns="http://www.w3.org/2000/svg">
<g id="edit/double_quotes_l">
<g id="Icon">
<path d="M6.82189 4.84222C7.47548 4.84222 7.91666 5.29718 7.91666 5.9712C7.91666 6.57782 7.41012 7.08334 6.72385 7.08334C5.97222 7.08334 5.41666 6.47672 5.41666 5.54994C5.41666 3.44363 6.95261 2.6011 7.91666 2.5L7.91666 3.42678C7.26307 3.54473 6.52777 4.2019 6.49509 4.92647C6.52777 4.90962 6.65849 4.84222 6.82189 4.84222Z" fill="#79819A"/>
<path d="M3.48856 4.84222C4.14215 4.84222 4.58333 5.29718 4.58333 5.9712C4.58333 6.57782 4.07679 7.08334 3.39052 7.08334C2.63888 7.08334 2.08333 6.47672 2.08333 5.54994C2.08333 3.44363 3.61928 2.6011 4.58333 2.5V3.42678C3.92973 3.54473 3.19444 4.2019 3.16176 4.92647C3.19444 4.90962 3.32516 4.84222 3.48856 4.84222Z" fill="#79819A"/>
</g>
</g>
</svg>
