<svg width="10" height="10" viewBox="0 0 10 10" fill="none" xmlns="http://www.w3.org/2000/svg">
<g id="Theme=edit, Variant=double_quotes_r">
<g id="Icon">
<path d="M3.1781 4.74112C2.5245 4.74112 2.08333 4.28615 2.08333 3.61213C2.08333 3.00552 2.58986 2.5 3.27614 2.5C4.02777 2.5 4.58333 3.10662 4.58333 4.03339C4.58333 6.13971 3.04738 6.98223 2.08333 7.08333V6.15656C2.73692 6.0386 3.47222 5.38143 3.5049 4.65686C3.47222 4.67371 3.3415 4.74112 3.1781 4.74112Z" fill="#79819A"/>
<path d="M6.51143 4.74112C5.85784 4.74112 5.41666 4.28615 5.41666 3.61213C5.41666 3.00552 5.9232 2.5 6.60947 2.5C7.3611 2.5 7.91666 3.10662 7.91666 4.03339C7.91666 6.13971 6.38071 6.98223 5.41666 7.08333V6.15656C6.07026 6.0386 6.80555 5.38143 6.83823 4.65686C6.80555 4.67371 6.67483 4.74112 6.51143 4.74112Z" fill="#79819A"/>
</g>
</g>
</svg>
